# xmcd
#
# Track frame offsets:
# 150
# 19995
# 40245
# 60819
# 81609
# 104505
# 123783
# 143250
# 161529
# 180726
# 197088
# 213720
# 228273
# 242097
# 255057
# 267207
# 280248
# 296421
#
# Disc length: 4241 seconds
#
#
# Revision: 0
# Processed by: cddbd v1.4PL0 Copyright (c) Steve Scherf et al.
# Submitted via: FreeRIP 2.52 
#
DISCID=f6108f12
DTITLE=范逸臣 - 信仰爱情
DYEAR=2003
DGENRE=Acid
TTITLE0=你爱我吗
TTITLE1=百慕大
TTITLE2=信仰爱情
TTITLE3=亚德里亚海
TTITLE4=忘了爱
TTITLE5=街角的爱情
TTITLE6=停不了
TTITLE7=躲不过
TTITLE8=DEVIL ANGEL
TTITLE9=DALALA-DILA
TTITLE10=日安我的爱
TTITLE11=爱从昨夜不停了
TTITLE12=原来你什么都不要
TTITLE13=SHAKE YOU BON-BON
TTITLE14=海洋
TTITLE15=不甘心不放手
TTITLE16=彩虹
TTITLE17=I BELIEVE
EXTD=
EXTT0=
EXTT1=
EXTT2=
EXTT3=
EXTT4=
EXTT5=
EXTT6=
EXTT7=
EXTT8=
EXTT9=
EXTT10=
EXTT11=
EXTT12=
EXTT13=
EXTT14=
EXTT15=
EXTT16=
EXTT17=
PLAYORDER=
